<?xml version="1.0" encoding="iso-8859-1"?>
<!-- Generator: Adobe Illustrator 23.0.0, SVG Export Plug-In . SVG Version: 6.00 Build 0)  -->
<svg version="1.1" id="&#x56FE;&#x5C42;_1" xmlns="http://www.w3.org/2000/svg" xmlns:xlink="http://www.w3.org/1999/xlink" x="0px"
	 y="0px" viewBox="0 0 500 500" style="enable-background:new 0 0 500 500;" xml:space="preserve">
<g>
	<radialGradient id="SVGID_1_" cx="250" cy="250" r="238" gradientUnits="userSpaceOnUse">
		<stop  offset="0" style="stop-color:#1516E4"/>
		<stop  offset="1" style="stop-color:#00C1FF;stop-opacity:0"/>
	</radialGradient>
	<circle style="fill:url(#SVGID_1_);" cx="250" cy="250" r="238"/>
	<g>
		<linearGradient id="SVGID_2_" gradientUnits="userSpaceOnUse" x1="38.9367" y1="250" x2="461.0633" y2="250">
			<stop  offset="0" style="stop-color:#1516E4"/>
			<stop  offset="1" style="stop-color:#00C1FF"/>
		</linearGradient>
		<path style="fill:url(#SVGID_2_);" d="M250,461.063c-28.493,0-56.134-5.581-82.156-16.587
			c-25.133-10.631-47.705-25.848-67.088-45.232c-19.383-19.383-34.601-41.955-45.232-67.088
			C44.518,306.134,38.937,278.493,38.937,250s5.581-56.134,16.587-82.156c10.631-25.133,25.848-47.705,45.232-67.088
			c19.383-19.383,41.955-34.601,67.088-45.232C193.866,44.518,221.507,38.937,250,38.937s56.134,5.581,82.156,16.587
			c25.133,10.631,47.705,25.848,67.088,45.232c19.383,19.383,34.601,41.955,45.232,67.088
			c11.006,26.023,16.587,53.664,16.587,82.156s-5.581,56.134-16.587,82.156c-10.631,25.133-25.848,47.705-45.232,67.088
			c-19.383,19.383-41.955,34.601-67.088,45.232C306.134,455.482,278.493,461.063,250,461.063z M250,43.005
			c-27.945,0-55.053,5.472-80.571,16.266c-24.649,10.425-46.786,25.351-65.796,44.362c-19.011,19.011-33.936,41.147-44.362,65.796
			C48.478,194.947,43.005,222.055,43.005,250s5.472,55.053,16.266,80.571c10.425,24.649,25.351,46.786,44.362,65.796
			c19.011,19.011,41.147,33.936,65.796,44.362c25.518,10.794,52.626,16.266,80.571,16.266s55.053-5.472,80.571-16.266
			c24.649-10.425,46.786-25.351,65.796-44.362c19.011-19.01,33.936-41.147,44.362-65.796c10.794-25.518,16.266-52.626,16.266-80.571
			s-5.472-55.053-16.266-80.571c-10.425-24.649-25.351-46.786-44.362-65.796c-19.01-19.011-41.147-33.936-65.796-44.362
			C305.053,48.478,277.945,43.005,250,43.005z"/>
	</g>
	<g>
		<linearGradient id="SVGID_3_" gradientUnits="userSpaceOnUse" x1="61.1058" y1="250" x2="438.8942" y2="250">
			<stop  offset="0" style="stop-color:#1516E4"/>
			<stop  offset="1" style="stop-color:#00C1FF"/>
		</linearGradient>
		<path style="fill:url(#SVGID_3_);" d="M250,438.894c-25.499,0-50.237-4.995-73.528-14.846
			c-22.494-9.514-42.695-23.133-60.041-40.48c-17.347-17.346-30.966-37.547-40.48-60.041C66.101,300.237,61.106,275.499,61.106,250
			s4.995-50.237,14.846-73.528c9.514-22.494,23.133-42.695,40.48-60.041c17.346-17.347,37.547-30.966,60.041-40.48
			c23.291-9.851,48.029-14.846,73.528-14.846s50.237,4.995,73.528,14.846c22.494,9.514,42.695,23.133,60.041,40.48
			c17.347,17.346,30.966,37.547,40.48,60.041c9.851,23.291,14.846,48.029,14.846,73.528s-4.995,50.237-14.846,73.528
			c-9.514,22.494-23.133,42.695-40.48,60.041c-17.346,17.347-37.547,30.966-60.041,40.48
			C300.237,433.899,275.499,438.894,250,438.894z M250,69.243c-24.404,0-48.076,4.779-70.358,14.203
			c-21.524,9.104-40.855,22.138-57.457,38.739c-16.602,16.602-29.636,35.933-38.739,57.457
			C74.021,201.924,69.243,225.596,69.243,250s4.779,48.076,14.203,70.358c9.104,21.524,22.138,40.855,38.739,57.457
			c16.602,16.602,35.933,29.636,57.457,38.739c22.282,9.424,45.954,14.203,70.358,14.203s48.076-4.779,70.358-14.203
			c21.524-9.104,40.855-22.138,57.457-38.739c16.602-16.602,29.636-35.933,38.739-57.457c9.424-22.282,14.203-45.954,14.203-70.358
			s-4.779-48.076-14.203-70.358c-9.104-21.524-22.138-40.855-38.739-57.457c-16.602-16.602-35.933-29.636-57.457-38.739
			C298.076,74.021,274.404,69.243,250,69.243z"/>
	</g>
	<linearGradient id="SVGID_4_" gradientUnits="userSpaceOnUse" x1="250" y1="418.6903" x2="250" y2="81.3097">
		<stop  offset="0" style="stop-color:#1516E4"/>
		<stop  offset="1" style="stop-color:#00C1FF"/>
	</linearGradient>
	<circle style="fill:url(#SVGID_4_);" cx="250" cy="250" r="168.69"/>
	<g>
		<defs>
			<circle id="SVGID_5_" cx="250" cy="250" r="168.69"/>
		</defs>
		<clipPath id="SVGID_6_">
			<use xlink:href="#SVGID_5_"  style="overflow:visible;"/>
		</clipPath>
		<linearGradient id="SVGID_7_" gradientUnits="userSpaceOnUse" x1="197.926" y1="134.8505" x2="197.926" y2="43.171">
			<stop  offset="0" style="stop-color:#4866F5"/>
			<stop  offset="1" style="stop-color:#34B2FF"/>
		</linearGradient>
		<circle style="clip-path:url(#SVGID_6_);fill:url(#SVGID_7_);" cx="197.926" cy="89.011" r="45.84"/>
		<linearGradient id="SVGID_8_" gradientUnits="userSpaceOnUse" x1="384.9522" y1="176.2897" x2="384.9522" y2="111.7473">
			<stop  offset="0" style="stop-color:#4866F5"/>
			<stop  offset="1" style="stop-color:#34B2FF"/>
		</linearGradient>
		<circle style="clip-path:url(#SVGID_6_);fill:url(#SVGID_8_);" cx="384.952" cy="144.018" r="32.271"/>
		<linearGradient id="SVGID_9_" gradientUnits="userSpaceOnUse" x1="276.037" y1="219.1957" x2="276.037" y2="173.7227">
			<stop  offset="0" style="stop-color:#4866F5"/>
			<stop  offset="1" style="stop-color:#34B2FF"/>
		</linearGradient>
		<circle style="clip-path:url(#SVGID_6_);fill:url(#SVGID_9_);" cx="276.037" cy="196.459" r="22.737"/>
		<linearGradient id="SVGID_10_" gradientUnits="userSpaceOnUse" x1="123.4823" y1="263.5686" x2="123.4823" y2="144.0185">
			<stop  offset="0" style="stop-color:#495DF7"/>
			<stop  offset="1" style="stop-color:#2683FD"/>
		</linearGradient>
		<circle style="clip-path:url(#SVGID_6_);fill:url(#SVGID_10_);" cx="123.482" cy="203.794" r="59.775"/>
		<linearGradient id="SVGID_11_" gradientUnits="userSpaceOnUse" x1="233.8644" y1="334.3452" x2="233.8644" y2="250">
			<stop  offset="0" style="stop-color:#495DF7"/>
			<stop  offset="1" style="stop-color:#2683FD"/>
		</linearGradient>
		<circle style="clip-path:url(#SVGID_6_);fill:url(#SVGID_11_);" cx="233.864" cy="292.173" r="42.173"/>
		<linearGradient id="SVGID_12_" gradientUnits="userSpaceOnUse" x1="394.8536" y1="353.7812" x2="394.8536" y2="269.4361">
			<stop  offset="0" style="stop-color:#3C47EF"/>
			<stop  offset="1" style="stop-color:#435AF6"/>
		</linearGradient>
		<circle style="clip-path:url(#SVGID_6_);fill:url(#SVGID_12_);" cx="394.854" cy="311.609" r="42.173"/>
		<linearGradient id="SVGID_13_" gradientUnits="userSpaceOnUse" x1="56.3729" y1="395.9538" x2="170.7889" y2="395.9538">
			<stop  offset="0" style="stop-color:#3C47EF"/>
			<stop  offset="1" style="stop-color:#435AF6"/>
		</linearGradient>
		<circle style="clip-path:url(#SVGID_6_);fill:url(#SVGID_13_);" cx="113.581" cy="395.954" r="57.208"/>
		<linearGradient id="SVGID_14_" gradientUnits="userSpaceOnUse" x1="298.7735" y1="410.6225" x2="343.5131" y2="410.6225">
			<stop  offset="0" style="stop-color:#3C47EF"/>
			<stop  offset="1" style="stop-color:#435AF6"/>
		</linearGradient>
		<circle style="clip-path:url(#SVGID_6_);fill:url(#SVGID_14_);" cx="321.143" cy="410.622" r="22.37"/>
	</g>
</g>
</svg>
