<?xml version="1.0" encoding="iso-8859-1"?>
<!-- Generator: Adobe Illustrator 23.0.0, SVG Export Plug-In . SVG Version: 6.00 Build 0)  -->
<svg version="1.1" id="&#x56FE;&#x5C42;_1" xmlns="http://www.w3.org/2000/svg" xmlns:xlink="http://www.w3.org/1999/xlink" x="0px"
	 y="0px" viewBox="0 0 500 500" style="enable-background:new 0 0 500 500;" xml:space="preserve">
<g>
	<radialGradient id="SVGID_1_" cx="250" cy="248" r="216" gradientUnits="userSpaceOnUse">
		<stop  offset="0" style="stop-color:#FFD400"/>
		<stop  offset="0.9859" style="stop-color:#FFD400;stop-opacity:0"/>
	</radialGradient>
	<circle style="fill:url(#SVGID_1_);" cx="250" cy="248" r="216"/>
	<circle style="fill:#EA3E43;" cx="250" cy="248" r="151.583"/>
	<g>
		<defs>
			<circle id="SVGID_2_" cx="250" cy="248" r="151.583"/>
		</defs>
		<clipPath id="SVGID_3_">
			<use xlink:href="#SVGID_2_"  style="overflow:visible;"/>
		</clipPath>
		<radialGradient id="SVGID_4_" cx="212.8071" cy="236.8805" r="140.4639" gradientUnits="userSpaceOnUse">
			<stop  offset="0" style="stop-color:#FF8F00"/>
			<stop  offset="0.9859" style="stop-color:#FF8F00;stop-opacity:0"/>
		</radialGradient>
		<circle style="clip-path:url(#SVGID_3_);fill:url(#SVGID_4_);" cx="212.807" cy="236.88" r="140.464"/>
		<g style="clip-path:url(#SVGID_3_);">
			<path style="opacity:0.4;fill:#FF8F00;" d="M165.645,357.917c-25.562,6.135-38.599,1.278-47.29-17.127
				c0,0,104.84-29.12,156.185-64.161c48.286-32.953,93.292-101.553,99.991-128.769l-10.523-14.89c0,0-12.27,48.824-23.517,62.116
				c-11.247,13.292-70.04,18.405-90.49,29.652c-20.45,11.247-38.599,62.116-65.183,80.265s-104.805,0-104.805,0l54.959,80.521
				c0,0,18.405-10.225,39.754-13.406c10.967-1.634,23.314-3.719,37.962-8.131C194.48,359.88,177.723,355.018,165.645,357.917z"/>
			<path style="opacity:0.4;fill:#FF8F00;" d="M303.422,308.986c8.955-9.01,17.987-18.844,26.501-28.64
				c-10.134,2.22-18.706,4.752-21.897,8.298C304.918,292.097,304.299,299.727,303.422,308.986z"/>
		</g>
		<path style="opacity:0.7;clip-path:url(#SVGID_3_);fill:#FF8F00;" d="M118.355,340.791c0,0,104.84-29.12,156.185-64.161
			c53.936-36.809,103.782-118.097,100.715-136.502c-3.067-18.405,49.846,59.56,42.689,69.018
			c-7.157,9.458-23.262,11.759-32.464,20.705c-9.202,8.947,0,26.329-7.157,36.554c-7.157,10.225-61.094,12.014-70.296,22.239
			s3.412,57.075-33.442,74.422s-83.377-11.283-108.939-5.148C140.083,364.052,127.046,359.195,118.355,340.791z"/>
		<path style="opacity:0.4;clip-path:url(#SVGID_3_);fill:#FF8F00;" d="M88.192,196.109c0,0,96.88,16.615,122.187-26.329
			s66.973-71.318,81.288-73.363c14.315-2.045-114.007-24.54-114.007-24.54L88.192,196.109z"/>
		<path style="opacity:0.5;clip-path:url(#SVGID_3_);fill:#FF8F00;" d="M250,409.808c0,0,48.057-39.621,74.386-52.914
			c26.329-13.292,88.445-27.352,88.445-27.352l-59.56,44.734l-55.47,35.531H250z"/>
	</g>
	<path style="opacity:0.3;fill:#FF624A;" d="M389.134,187.748c0.373,0.861,0.739,1.726,1.097,2.595
		c37.214,10.65,60.312,25.504,60.312,41.936c0,32.4-89.786,58.665-200.543,58.665S49.457,264.679,49.457,232.279
		c0-16.433,23.098-31.286,60.312-41.936c0.358-0.869,0.724-1.734,1.097-2.595C51.436,201.266,12.783,223.217,12.783,248
		c0,41.082,106.205,74.386,237.217,74.386S487.217,289.082,487.217,248C487.217,223.217,448.564,201.266,389.134,187.748z"/>
	<path style="opacity:0.7;fill:#FF7C75;" d="M389.224,187.958c0.129,0.298,0.258,0.596,0.385,0.895
		c45.826,11.603,74.857,28.815,74.857,48.027c0,34.941-96.02,63.266-214.466,63.266S35.534,271.821,35.534,236.881
		c0-19.212,29.031-36.424,74.857-48.027c0.127-0.299,0.256-0.597,0.385-0.895c-54.603,12.731-89.812,32.771-89.812,55.313
		c0,38.471,102.543,69.657,229.037,69.657s229.037-31.186,229.037-69.657C479.037,220.729,443.827,200.689,389.224,187.958z"/>
</g>
</svg>
